<?xml version="1.0" encoding="UTF-8"?>
<svg data-name="Component 1 – 1" viewBox="0 0 74.301 74.301" xmlns="http://www.w3.org/2000/svg">
<g fill="#141318">
<path d="m61.616 72.301h-48.93c-2.8542 0-5.5376-1.1115-7.5559-3.1297-2.0182-2.0182-3.1297-4.7016-3.1297-7.5559v-48.93c0-2.8542 1.1115-5.5376 3.1297-7.5559 2.0182-2.0182 4.7016-3.1297 7.5559-3.1297h48.93c2.8542 0 5.5376 1.1115 7.5559 3.1297 2.0182 2.0182 3.1297 4.7016 3.1297 7.5559v48.93c0 2.8542-1.1115 5.5376-3.1297 7.5559-2.0182 2.0182-4.7016 3.1297-7.5559 3.1297z"/>
<path d="m12.686 4c-4.7893 0-8.6856 3.8963-8.6856 8.6856v48.93c0 4.7893 3.8963 8.6856 8.6856 8.6856h48.93c4.7893 0 8.6856-3.8963 8.6856-8.6856v-48.93c0-4.7893-3.8963-8.6856-8.6856-8.6856h-48.93m0-4h48.93c7.0061 0 12.686 5.6796 12.686 12.686v48.93c0 7.0061-5.6795 12.686-12.686 12.686h-48.93c-7.0061 0-12.686-5.6795-12.686-12.686v-48.93c0-7.0061 5.6796-12.686 12.686-12.686z" fill="#4353ff"/>
</g>
<text transform="translate(11.724 28.881)" fill="#4353ff" font-family="SegoeUI-Bold, Segoe UI" font-size="23" font-weight="700"><tspan x="0" y="0">TO</tspan></text>
<text transform="translate(28.675 57.94)" fill="#4353ff" font-family="SegoeUI-Bold, Segoe UI" font-size="23" font-weight="700"><tspan x="0" y="0">DO</tspan></text>
</svg>
